<svg preserveAspectRatio="none" overflow="visible" style="display: block;" width="16" height="16" viewBox="0 0 16 16" fill="none" xmlns="http://www.w3.org/2000/svg">
<g id="uil:calendar-alt">
<path id="Vector" d="M7.9987 12.6641C8.13055 12.6641 8.25945 12.625 8.36908 12.5517C8.47871 12.4785 8.56416 12.3743 8.61462 12.2525C8.66508 12.1307 8.67828 11.9967 8.65256 11.8673C8.62683 11.738 8.56334 11.6192 8.4701 11.526C8.37687 11.4328 8.25808 11.3693 8.12876 11.3435C7.99944 11.3178 7.86539 11.331 7.74358 11.3815C7.62176 11.4319 7.51764 11.5174 7.44439 11.627C7.37113 11.7366 7.33203 11.8655 7.33203 11.9974C7.33203 12.1742 7.40227 12.3438 7.52729 12.4688C7.65232 12.5938 7.82189 12.6641 7.9987 12.6641ZM11.332 12.6641C11.4639 12.6641 11.5928 12.625 11.7024 12.5517C11.812 12.4785 11.8975 12.3743 11.948 12.2525C11.9984 12.1307 12.0116 11.9967 11.9859 11.8673C11.9602 11.738 11.8967 11.6192 11.8034 11.526C11.7102 11.4328 11.5914 11.3693 11.4621 11.3435C11.3328 11.3178 11.1987 11.331 11.0769 11.3815C10.9551 11.4319 10.851 11.5174 10.7777 11.627C10.7045 11.7366 10.6654 11.8655 10.6654 11.9974C10.6654 12.1742 10.7356 12.3438 10.8606 12.4688C10.9857 12.5938 11.1552 12.6641 11.332 12.6641ZM11.332 9.9974C11.4639 9.9974 11.5928 9.9583 11.7024 9.88504C11.812 9.81179 11.8975 9.70767 11.948 9.58585C11.9984 9.46403 12.0116 9.32999 11.9859 9.20067C11.9602 9.07135 11.8967 8.95256 11.8034 8.85933C11.7102 8.76609 11.5914 8.7026 11.4621 8.67687C11.3328 8.65115 11.1987 8.66435 11.0769 8.71481C10.9551 8.76527 10.851 8.85072 10.7777 8.96035C10.7045 9.06998 10.6654 9.19888 10.6654 9.33073C10.6654 9.50754 10.7356 9.67711 10.8606 9.80213C10.9857 9.92716 11.1552 9.9974 11.332 9.9974ZM7.9987 9.9974C8.13055 9.9974 8.25945 9.9583 8.36908 9.88504C8.47871 9.81179 8.56416 9.70767 8.61462 9.58585C8.66508 9.46403 8.67828 9.32999 8.65256 9.20067C8.62683 9.07135 8.56334 8.95256 8.4701 8.85933C8.37687 8.76609 8.25808 8.7026 8.12876 8.67687C7.99944 8.65115 7.86539 8.66435 7.74358 8.71481C7.62176 8.76527 7.51764 8.85072 7.44439 8.96035C7.37113 9.06998 7.33203 9.19888 7.33203 9.33073C7.33203 9.50754 7.40227 9.67711 7.52729 9.80213C7.65232 9.92716 7.82189 9.9974 7.9987 9.9974ZM12.6654 1.9974H11.9987V1.33073C11.9987 1.15392 11.9285 0.984349 11.8034 0.859325C11.6784 0.7343 11.5088 0.664063 11.332 0.664062C11.1552 0.664063 10.9857 0.7343 10.8606 0.859325C10.7356 0.984349 10.6654 1.15392 10.6654 1.33073V1.9974H5.33203V1.33073C5.33203 1.15392 5.26179 0.984349 5.13677 0.859325C5.01174 0.7343 4.84218 0.664063 4.66536 0.664062C4.48855 0.664063 4.31898 0.7343 4.19396 0.859325C4.06894 0.984349 3.9987 1.15392 3.9987 1.33073V1.9974H3.33203C2.8016 1.9974 2.29289 2.20811 1.91782 2.58318C1.54275 2.95826 1.33203 3.46696 1.33203 3.9974V13.3307C1.33203 13.8612 1.54275 14.3699 1.91782 14.7449C2.29289 15.12 2.8016 15.3307 3.33203 15.3307H12.6654C13.1958 15.3307 13.7045 15.12 14.0796 14.7449C14.4547 14.3699 14.6654 13.8612 14.6654 13.3307V3.9974C14.6654 3.46696 14.4547 2.95826 14.0796 2.58318C13.7045 2.20811 13.1958 1.9974 12.6654 1.9974ZM13.332 13.3307C13.332 13.5075 13.2618 13.6771 13.1368 13.8021C13.0117 13.9272 12.8422 13.9974 12.6654 13.9974H3.33203C3.15522 13.9974 2.98565 13.9272 2.86063 13.8021C2.7356 13.6771 2.66536 13.5075 2.66536 13.3307V7.33073H13.332V13.3307ZM13.332 5.9974H2.66536V3.9974C2.66536 3.82058 2.7356 3.65102 2.86063 3.52599C2.98565 3.40097 3.15522 3.33073 3.33203 3.33073H3.9987V3.9974C3.9987 4.17421 4.06894 4.34378 4.19396 4.4688C4.31898 4.59382 4.48855 4.66406 4.66536 4.66406C4.84218 4.66406 5.01174 4.59382 5.13677 4.4688C5.26179 4.34378 5.33203 4.17421 5.33203 3.9974V3.33073H10.6654V3.9974C10.6654 4.17421 10.7356 4.34378 10.8606 4.4688C10.9857 4.59382 11.1552 4.66406 11.332 4.66406C11.5088 4.66406 11.6784 4.59382 11.8034 4.4688C11.9285 4.34378 11.9987 4.17421 11.9987 3.9974V3.33073H12.6654C12.8422 3.33073 13.0117 3.40097 13.1368 3.52599C13.2618 3.65102 13.332 3.82058 13.332 3.9974V5.9974ZM4.66536 9.9974C4.79722 9.9974 4.92611 9.9583 5.03574 9.88504C5.14538 9.81179 5.23083 9.70767 5.28128 9.58585C5.33174 9.46403 5.34495 9.32999 5.31922 9.20067C5.2935 9.07135 5.23 8.95256 5.13677 8.85933C5.04353 8.76609 4.92475 8.7026 4.79542 8.67687C4.6661 8.65115 4.53206 8.66435 4.41024 8.71481C4.28843 8.76527 4.18431 8.85072 4.11105 8.96035C4.0378 9.06998 3.9987 9.19888 3.9987 9.33073C3.9987 9.50754 4.06894 9.67711 4.19396 9.80213C4.31898 9.92716 4.48855 9.9974 4.66536 9.9974ZM4.66536 12.6641C4.79722 12.6641 4.92611 12.625 5.03574 12.5517C5.14538 12.4785 5.23083 12.3743 5.28128 12.2525C5.33174 12.1307 5.34495 11.9967 5.31922 11.8673C5.2935 11.738 5.23 11.6192 5.13677 11.526C5.04353 11.4328 4.92475 11.3693 4.79542 11.3435C4.6661 11.3178 4.53206 11.331 4.41024 11.3815C4.28843 11.4319 4.18431 11.5174 4.11105 11.627C4.0378 11.7366 3.9987 11.8655 3.9987 11.9974C3.9987 12.1742 4.06894 12.3438 4.19396 12.4688C4.31898 12.5938 4.48855 12.6641 4.66536 12.6641Z" fill="#5F7A78"/>
</g>
</svg>
